<svg width="1393" height="177" xmlns="http://www.w3.org/2000/svg">
  <g fill="#000" fill-rule="nonzero">
    <path d="M232.87 156.42V23.94c15.867-1.153 31.163-1.73 45.89-1.73 18.667 0 31.753 5.023 39.26 15.07 7.507 10.047 11.25 27.68 11.23 52.9 0 25.22-3.743 42.853-11.23 52.9-7.487 10.047-20.573 15.07-39.26 15.07-14.467 0-29.763-.577-45.89-1.73zm12.48-122.69v112.9c12.8.26 23.937.387 33.41.38 13.953 0 23.65-4.16 29.09-12.48 5.44-8.32 8.157-23.103 8.15-44.35 0-21.247-2.72-36.063-8.16-44.45-5.44-8.387-15.137-12.58-29.09-12.58-2.3.007-13.433.2-33.4.58zM408.61 115.91h-46.47c.767 12.287 3.583 20.733 8.45 25.34 4.867 4.607 12.803 6.91 23.81 6.91a249.87 249.87 0 0032.06-2.3l1.34 8.26c-7.94 3.073-19.653 4.61-35.14 4.61-15.62 0-26.723-3.743-33.31-11.23-6.587-7.487-9.883-20.127-9.89-37.92 0-17.92 3.2-30.497 9.6-37.73 6.4-7.233 17.09-10.85 32.07-10.85 13.18 0 22.907 2.4 29.18 7.2 6.273 4.8 9.473 12.063 9.6 21.79.26 17.28-6.84 25.92-21.3 25.92zm-46.46-9.6h43.58c8.187 0 12.153-5.377 11.9-16.13-.127-6.527-2.24-11.263-6.34-14.21-4.1-2.947-10.627-4.42-19.58-4.42-10.88 0-18.497 2.527-22.85 7.58-4.353 5.053-6.593 14.113-6.72 27.18h.01zM533.27 63.49l-35.52 89.86a4.48 4.48 0 01-4.61 3.07h-11.33a4.48 4.48 0 01-4.61-3.07l-35.52-89.86h13.06l25.34 67.2c.767 1.92 1.823 4.8 3.17 8.64 1.347 3.84 2.347 6.527 3 8.06h2.5l6.34-16.9 25.34-67h12.84zM552.33 156.42V23.94c10.62-1.02 25.403-1.533 44.35-1.54 15.487 0 26.207 2.847 32.16 8.54 5.953 5.693 8.93 16.36 8.93 32 0 15.62-2.913 26.287-8.74 32-5.827 5.713-16.16 8.56-31 8.54-11.133 0-22.207-.513-33.22-1.54v54.53l-12.48-.05zm12.48-63.94h31.68c10.753-.127 18.177-2.207 22.27-6.24s6.14-11.81 6.14-23.33c0-11.647-2.047-19.52-6.14-23.62-4.093-4.1-11.517-6.147-22.27-6.14-10.88 0-21.44.127-31.68.38v58.95zM663.5 72c6.46-7.333 17.5-11 33.12-11 15.62 0 26.62 3.667 33 11 6.4 7.333 9.6 19.973 9.6 37.92 0 17.947-3.2 30.553-9.6 37.82-6.4 7.293-17.4 10.94-33 10.94-15.6 0-26.64-3.667-33.12-11-6.467-7.333-9.7-19.91-9.7-37.73 0-17.913 3.233-30.563 9.7-37.95zm56.5 7.81c-4.353-5.5-12.16-8.253-23.42-8.26-11.26-.007-19.067 2.747-23.42 8.26-4.353 5.507-6.53 15.553-6.53 30.14s2.177 24.633 6.53 30.14c4.347 5.507 12.153 8.26 23.42 8.26 11.267 0 19.073-2.75 23.42-8.25 4.353-5.5 6.53-15.547 6.53-30.14s-2.177-24.643-6.53-30.15zM764.84 24.32h5.57c2.667 0 4 1.333 4 4v11.14c0 2.667-1.333 4-4 4h-5.57c-2.667 0-4-1.333-4-4v-11.1c-.027-2.693 1.307-4.04 4-4.04zm8.83 132.1h-12.1V63.49h12.1v92.93zM810 63.49l1 15.36c15.487-11.907 29.82-17.86 43-17.86 16.667 0 25 8.513 25 25.54v69.89h-12.1V89.8c0-6.527-1.247-11.193-3.74-14-2.493-2.807-6.62-4.213-12.38-4.22a41.19 41.19 0 00-17 3.84 171.94 171.94 0 00-21.6 12.29v68.74H799.8V63.49H810zM954 146.82l1.54 9.22A98.86 98.86 0 01936.1 158c-15.333 0-23-7.743-23-23.23V73.09h-16.9v-8.64l16.9-1V35.27h12.1v28.22h31.49v9.6H925.2v60.29c0 8.96 4.543 13.44 13.63 13.44H954zM1034.78 23.94v107.9c0 9.333 4.607 14 13.82 14h49.4l.38 9.6c-13.567.767-30.847 1.15-51.84 1.15-8.067 0-14.147-2.113-18.24-6.34-4.093-4.227-6.14-9.793-6.14-16.7V23.94h12.62zM1118.41 74.24l-1.15-9c18.56-2.827 33.473-4.24 44.74-4.24 10 0 17.457 2.207 22.37 6.62s7.377 11.747 7.39 22v66.82h-9.6l-1.54-16.32a67.58 67.58 0 01-18 12.38 50.67 50.67 0 01-22.75 5.47c-8.193 0-14.657-2.177-19.39-6.53-4.733-4.353-7.1-10.56-7.1-18.62v-10.77c0-7.167 2.113-12.733 6.34-16.7 4.227-3.967 10.227-5.967 18-6h41.66V89.6c0-6.147-1.44-10.69-4.32-13.63-2.88-2.94-8.033-4.413-15.46-4.42a395.16 395.16 0 00-41.19 2.69zm7.3 49.34v8.06c0 10.367 5.44 15.55 16.32 15.55 5.633.127 11.937-1.25 18.91-4.13a63.43 63.43 0 0018.53-11.62v-22.25h-39.74c-9.347.38-14.02 5.18-14.02 14.4v-.01zM1229.06 22v37.25c0 8.96-.447 15.627-1.34 20 12.413-12.167 24.7-18.25 36.86-18.25 11.9 0 20.507 3.777 25.82 11.33 5.313 7.553 7.98 20.033 8 37.44 0 17.027-2.977 29.443-8.93 37.25-5.953 7.807-16.287 11.71-31 11.71a137.524 137.524 0 01-41.47-6.34V22h12.06zm0 65.47v57a97.09 97.09 0 0029.18 3.65c10 0 17.073-2.88 21.22-8.64 4.147-5.76 6.227-15.68 6.24-29.76 0-14.207-1.76-24.093-5.28-29.66-3.52-5.567-9.953-8.35-19.3-8.35a30.39 30.39 0 00-14.5 3.74 129.41 129.41 0 00-17.56 12.04v-.02zM1365.46 117.06l-28.46-5.38c-7.293-1.407-12.573-4.073-15.84-8-3.267-3.927-4.9-9.72-4.9-17.38 0-10.493 2.667-17.373 8-20.64 5.333-3.267 14.58-4.82 27.74-4.66a299.85 299.85 0 0138 2.88l-1.15 8.83c-15.333-.767-27.11-1.15-35.33-1.15-10.24-.127-17.023.61-20.35 2.21-3.327 1.6-4.993 5.793-5 12.58 0 5.253 1.087 8.9 3.26 10.94 2.173 2.04 5.82 3.577 10.94 4.61l28.61 5.38c7.42 1.533 12.86 4.2 16.32 8 3.46 3.8 5.187 9.467 5.18 17 0 10.88-2.913 17.983-8.74 21.31-5.827 3.327-15.78 4.993-29.86 5a238.35 238.35 0 01-35.52-2.5l1-9c10.107.893 20.923 1.277 32.45 1.15 11.393-.127 19.04-1.183 22.94-3.17 3.9-1.987 5.853-6.243 5.86-12.77 0-4.993-1.217-8.513-3.65-10.56-2.433-2.047-6.267-3.607-11.5-4.68zM164.61 159.12L114.83 24h10a6.26 6.26 0 006.17-6V6a6.261 6.261 0 00-6.17-6h-84A5.753 5.753 0 0035 6v12a5.75 5.75 0 005.83 6H41V6h83.84a.35.35 0 01.16.24v11.51a.33.33 0 01-.17.24h-18.6l3 8.07 22.71 61.65c-36.6-3-40.23-30.7-86.49-31.69l11-30 3-8.07H47v6h3.83L39 56.09 25.42 93 1 159.12a15.37 15.37 0 00-1 6.57c.039.497.11.992.21 1.48 1.11 5.26 5.74 8.84 12.58 8.84h140c9.98-.01 15.21-7.57 11.82-16.89zM115 104c8.837 0 16 7.163 16 16s-7.163 16-16 16-16-7.163-16-16 7.163-16 16-16zm-20 48c0 6.627-5.373 12-12 12s-12-5.373-12-12 5.373-12 12-12 12 5.373 12 12zM67 80c13.255 0 24 10.745 24 24s-10.745 24-24 24-24-10.745-24-24 10.745-24 24-24z"/>
  </g>
</svg>
