<?xml version="1.0" encoding="UTF-8"?>
<svg width="134px" height="52px" viewBox="0 0 134 52" version="1.1" xmlns="http://www.w3.org/2000/svg" xmlns:xlink="http://www.w3.org/1999/xlink">
    <!-- Generator: Sketch 64 (93537) - https://sketch.com -->
    <title>Logo</title>
    <desc>Created with Sketch.</desc>
    <g id="Page-1" stroke="none" stroke-width="1" fill="none" fill-rule="evenodd">
        <g id="Logo" fill="#000000" fill-rule="nonzero">
            <path d="M50.432,48 C50.896,48 51.22,47.908 51.404,47.724 C51.588,47.54 51.68,47.216 51.68,46.752 L51.68,46.752 L51.68,45.6 C51.68,45.136 51.588,44.816 51.404,44.64 C51.22,44.464 50.896,44.376 50.432,44.376 L50.432,44.376 L49.472,44.376 C49.008,44.376 48.684,44.464 48.5,44.64 C48.316,44.816 48.224,45.136 48.224,45.6 L48.224,45.6 L48.224,46.752 C48.224,47.216 48.316,47.54 48.5,47.724 C48.684,47.908 49.008,48 49.472,48 L49.472,48 L50.432,48 Z M60.3493333,48.312 C62.6533333,48.312 64.2533333,47.98 65.1493333,47.316 C66.0453333,46.652 66.4933333,45.392 66.4933333,43.536 C66.4933333,42.288 66.2293333,41.276 65.7013333,40.5 C65.1733333,39.724 64.2693333,39.112 62.9893333,38.664 L62.9893333,38.664 L59.8453333,37.584 C59.1733333,37.36 58.7173333,37.128 58.4773333,36.888 C58.2373333,36.648 58.1173333,36.256 58.1173333,35.712 C58.1173333,35.04 58.2773333,34.62 58.5973333,34.452 C58.9173333,34.284 59.5573333,34.2 60.5173333,34.2 C62.5813333,34.2 64.3093333,34.224 65.7013333,34.272 L65.7013333,34.272 L65.9413333,31.776 C64.4213333,31.344 62.6053333,31.128 60.4933333,31.128 C58.2533333,31.128 56.6893333,31.436 55.8013333,32.052 C54.9133333,32.668 54.4693333,33.888 54.4693333,35.712 C54.4693333,36.96 54.7333333,37.968 55.2613333,38.736 C55.7893333,39.504 56.6693333,40.112 57.9013333,40.56 L57.9013333,40.56 L61.2373333,41.736 C61.8293333,41.928 62.2373333,42.14 62.4613333,42.372 C62.6853333,42.604 62.7973333,43 62.7973333,43.56 C62.7973333,44.216 62.6333333,44.648 62.3053333,44.856 C61.9773333,45.064 61.3253333,45.168 60.3493333,45.168 C60.1093333,45.168 58.2853333,45.128 54.8773333,45.048 L54.8773333,45.048 L54.6613333,47.688 C56.5813333,48.104 58.4773333,48.312 60.3493333,48.312 Z M73.2666667,48 L73.2666667,40.608 L79.1226667,40.608 L79.1226667,48 L82.7706667,48 L82.7706667,31.44 L79.1226667,31.44 L79.1226667,37.776 L73.2666667,37.776 L73.2666667,31.44 L69.6186667,31.44 L69.6186667,48 L73.2666667,48 Z M93.192,48.312 C95.848,48.312 97.696,47.7 98.736,46.476 C99.776,45.252 100.296,43 100.296,39.72 C100.296,36.44 99.776,34.188 98.736,32.964 C97.696,31.74 95.848,31.128 93.192,31.128 C90.536,31.128 88.688,31.744 87.648,32.976 C86.624,34.192 86.112,36.44 86.112,39.72 C86.112,43 86.628,45.252 87.66,46.476 C88.692,47.7 90.536,48.312 93.192,48.312 Z M93.192,45.36 C91.944,45.36 91.092,44.968 90.636,44.184 C90.18,43.4 89.952,41.912 89.952,39.72 C89.952,37.528 90.18,36.04 90.636,35.256 C91.092,34.472 91.944,34.08 93.192,34.08 C94.44,34.08 95.288,34.472 95.736,35.256 C96.2,36.04 96.432,37.528 96.432,39.72 C96.432,41.912 96.204,43.4 95.748,44.184 C95.292,44.968 94.44,45.36 93.192,45.36 Z M107.261333,48 L107.261333,41.856 C108.285333,41.984 109.325333,42.048 110.381333,42.048 C112.477333,42.048 113.929333,41.668 114.737333,40.908 C115.545333,40.148 115.949333,38.72 115.949333,36.624 C115.949333,34.528 115.521333,33.104 114.665333,32.352 C113.809333,31.6 112.221333,31.224 109.901333,31.224 C107.197333,31.224 105.101333,31.296 103.613333,31.44 L103.613333,31.44 L103.613333,48 L107.261333,48 Z M109.829333,39.24 L107.261333,39.24 L107.261333,34.056 L109.829333,34.032 C110.773333,34.032 111.417333,34.208 111.761333,34.56 C112.105333,34.912 112.277333,35.6 112.277333,36.624 C112.277333,37.648 112.105333,38.336 111.761333,38.688 C111.417333,39.04 110.773333,39.224 109.829333,39.24 L109.829333,39.24 Z M124.810667,51.96 L125.074667,50.976 C122.018667,49.408 120.490667,45.912 120.490667,40.488 C120.490667,37.72 120.858667,35.476 121.594667,33.756 C122.330667,32.036 123.490667,30.792 125.074667,30.024 L125.074667,30.024 L124.810667,29.04 C122.634667,29.872 121.038667,31.216 120.022667,33.072 C119.006667,34.928 118.498667,37.408 118.498667,40.512 C118.498667,43.6 119.006667,46.072 120.022667,47.928 C121.038667,49.784 122.634667,51.128 124.810667,51.96 L124.810667,51.96 Z M127.36,51.96 C129.536,51.128 131.136,49.784 132.16,47.928 C133.184,46.072 133.696,43.6 133.696,40.512 C133.696,37.392 133.184,34.908 132.16,33.06 C131.136,31.212 129.536,29.872 127.36,29.04 L127.36,29.04 L127.12,30.024 C128.688,30.792 129.84,32.036 130.576,33.756 C131.312,35.476 131.68,37.72 131.68,40.488 C131.68,43.208 131.312,45.432 130.576,47.16 C129.84,48.888 128.688,50.16 127.12,50.976 L127.12,50.976 L127.36,51.96 Z" id=".SHOP()"></path>
            <path d="M44.7198411,43.3940791 L31.1988563,6.54539688 L33.9150043,6.54539688 C34.8176784,6.53314426 35.5534554,5.81475273 35.5908676,4.90913213 L35.5908676,1.63660262 C35.5534554,0.730982011 34.8176784,0.0125904838 33.9150043,-6.60804744e-13 L11.099361,-6.60804744e-13 C10.6693532,-0.00608004513 10.2557387,0.165815662 9.95604449,0.475493333 C9.65635032,0.785171004 9.49710116,1.20522237 9.51584672,1.63660262 L9.51584672,4.90913213 C9.49710116,5.34051238 9.65635032,5.76056374 9.95604449,6.07024141 C10.2557387,6.37991908 10.6693532,6.55181479 11.099361,6.54539688 L11.1455355,6.54539688 L11.1455355,1.63660262 L33.9177205,1.63660262 C33.9409032,1.65113338 33.9567362,1.67497866 33.9611788,1.70205321 L33.9611788,4.84095443 C33.9568565,4.86883229 33.9397632,4.89306145 33.9150043,4.90640502 L28.862969,4.90640502 L29.6778134,7.10718111 L35.8461856,23.9198014 C25.9050838,23.1016691 24.9191221,15.5475801 12.3542214,15.2775964 L15.3419842,7.09627268 L16.1568286,4.89549659 L12.7752243,4.89549659 L12.7752243,6.53176134 L13.815509,6.53176134 L10.6023059,15.2966862 L10.6023059,15.2966862 L6.91377693,25.3624415 L0.280943481,43.3940791 C0.0613523704,43.9642818 -0.0313526195,44.5758112 0.00932868013,45.185789 C0.0198985852,45.3213936 0.0389491969,45.4561968 0.0663677884,45.589401 C0.367860218,47.0238597 1.62543675,48.0001644 3.48328199,48.0001644 L41.5093542,48.0001644 C44.2200699,47.9974373 45.6406153,45.9357437 44.7198411,43.3940791 Z M31.5,28.0001644 C33.9852814,28.0001644 36,30.014883 36,32.5001644 C36,34.9854458 33.9852814,37.0001644 31.5,37.0001644 C29.0147186,37.0001644 27,34.9854458 27,32.5001644 C27,30.014883 29.0147186,28.0001644 31.5,28.0001644 Z M26,41.5001644 C26,43.433161 24.4329966,45.0001644 22.5,45.0001644 C20.5670034,45.0001644 19,43.433161 19,41.5001644 C19,39.5671678 20.5670034,38.0001644 22.5,38.0001644 C24.4329966,38.0001644 26,39.5671678 26,41.5001644 L26,41.5001644 Z M18.5,22.0001644 C22.0898509,22.0001644 25,24.9103135 25,28.5001644 C25,32.0900153 22.0898509,35.0001644 18.5,35.0001644 C14.9101491,35.0001644 12,32.0900153 12,28.5001644 C12,24.9103135 14.9101491,22.0001644 18.5,22.0001644 Z" id="Beaker"></path>
        </g>
    </g>
</svg>