<svg width="29" height="29" xmlns="http://www.w3.org/2000/svg">
  <path d="M28.823 27.114l-8.424-8.424a11.42 11.42 0 002.56-7.21c0-6.33-5.15-11.48-11.48-11.48S0 5.15 0 11.48c0 6.329 5.15 11.478 11.48 11.478 2.73 0 5.237-.961 7.21-2.56l8.424 8.425a.604.604 0 00.855 0l.854-.854a.604.604 0 000-.855zm-17.344-6.572c-4.997 0-9.062-4.065-9.062-9.063 0-4.997 4.065-9.062 9.062-9.062 4.998 0 9.063 4.065 9.063 9.062 0 4.998-4.065 9.063-9.063 9.063z" fill="#000" fill-rule="nonzero" fill-opacity=".334"/>
</svg>
